<svg width="35" height="40" viewBox="0 0 35 40" fill="none" xmlns="http://www.w3.org/2000/svg">
<path fill-rule="evenodd" clip-rule="evenodd" d="M33.4209 31.138C32.8473 32.4733 32.1389 33.7465 31.3069 34.938C30.5237 36.1323 29.6105 37.2361 28.5839 38.229C27.6506 39.1618 26.4021 39.7116 25.0839 39.77C23.9672 39.721 22.8702 39.4589 21.8519 38.998C20.7524 38.5191 19.5707 38.2579 18.3718 38.229C17.1409 38.2533 15.9261 38.5143 14.7938 38.998C13.8157 39.4395 12.7706 39.7142 11.7019 39.811C10.3431 39.7946 9.05029 39.223 8.1239 38.229C7.05261 37.201 6.09766 36.0585 5.27588 34.822C3.99255 32.9815 2.97864 30.9672 2.26489 28.84C1.45044 26.55 1.02295 24.1404 0.999878 21.71C0.935425 19.3262 1.52698 16.9705 2.70996 14.9C3.57153 13.4044 4.80469 12.1564 6.28992 11.277C7.75403 10.4009 9.42468 9.9295 11.1309 9.91101C12.4192 9.9873 13.6852 10.2819 14.8749 10.782C15.8231 11.1996 16.8214 11.493 17.8448 11.655C18.9733 11.4196 20.0762 11.075 21.1379 10.626C22.5573 10.049 24.0825 9.77802 25.6139 9.83099C28.5704 9.90753 31.3226 11.3567 33.0588 13.751C30.2876 15.2238 28.587 18.1367 28.6669 21.274C28.6372 23.6525 29.6295 25.9294 31.3918 27.527C32.1827 28.2837 33.1057 28.889 34.1149 29.313C33.8962 29.9464 33.6649 30.5537 33.4209 31.135V31.138ZM25.8348 1.28699C25.8087 3.32031 25.0447 5.2749 23.6849 6.78693C21.9569 8.80701 19.8668 9.974 17.6008 9.78699C17.5704 9.53986 17.5551 9.29102 17.5549 9.04199C17.6235 6.97534 18.4332 5.00232 19.8358 3.48303C20.6143 2.6106 21.5591 1.9024 22.6149 1.40002C23.6034 0.889587 24.6846 0.583496 25.7938 0.5C25.822 0.761047 25.8357 1.02344 25.8348 1.28601V1.28699Z" fill="white"/>
</svg>
