<svg width="33" height="24" viewBox="0 0 33 24" fill="none" xmlns="http://www.w3.org/2000/svg">
<g opacity="0.5">
<path fill-rule="evenodd" clip-rule="evenodd" d="M16.5 24C13.8369 24.0183 11.2111 23.374 8.85901 22.125C6.92004 21.0711 5.18884 19.6734 3.75 18C2.18518 16.2149 0.918823 14.1888 0 12C0.920898 9.81226 2.18701 7.7865 3.75 6C5.18884 4.32663 6.92004 2.92886 8.85901 1.875C11.2111 0.626007 13.8369 -0.0183105 16.5 0C19.1631 -0.0183105 21.7889 0.626007 24.141 1.875C26.08 2.92886 27.8112 4.32663 29.25 6C30.8148 7.78509 32.0812 9.81116 33 12C32.0791 14.1877 30.813 16.2135 29.25 18C27.8112 19.6734 26.08 21.0711 24.141 22.125C21.7889 23.374 19.1631 24.0183 16.5 24ZM16.5 3C8.67297 3 4.65295 9.29999 3.28699 12.005C4.63794 14.709 8.63098 21 16.5 21C24.326 21 28.348 14.7 29.714 11.994C28.364 9.29102 24.373 3 16.5 3ZM16.5 18C13.1863 18 10.5 15.3137 10.5 12C10.5 8.68628 13.1863 6 16.5 6C19.8137 6 22.5 8.68628 22.5 12C22.4968 15.3122 19.8125 17.9966 16.5001 18H16.5ZM16.5 9C14.8431 9 13.5 10.3431 13.5 12C13.5 13.6569 14.8431 15 16.5 15C18.1569 15 19.5 13.6569 19.5 12C19.5 10.3431 18.1569 9 16.5 9Z" fill="#707070"/>
</g>
</svg>
