<svg width="36" height="35" viewBox="0 0 36 35" fill="none" xmlns="http://www.w3.org/2000/svg">
<path fill-rule="evenodd" clip-rule="evenodd" d="M18.339 0.5C9.26813 0.493164 1.72708 7.48309 1.04678 16.5284C0.366455 25.5737 6.77716 33.613 15.747 34.963L15.747 22.434H11.457V17.876H15.748V14.843C15.748 9.82098 18.194 7.61798 22.368 7.61798C23.557 7.60205 24.7456 7.67419 25.924 7.83398L25.924 11.813H23.077C21.306 11.813 20.687 13.492 20.687 15.386V17.877H25.879L25.179 22.434H20.686V35C29.7155 33.7645 36.2451 25.7464 35.6266 16.6538C35.008 7.56116 27.4526 0.501282 18.339 0.5H18.339Z" fill="#4267B2"/>
</svg>
