<svg width="27" height="32" viewBox="0 0 27 32" fill="none" xmlns="http://www.w3.org/2000/svg">
<g opacity="0.5">
<path fill-rule="evenodd" clip-rule="evenodd" d="M13.452 15.6C15.3934 15.6267 17.2604 14.8531 18.614 13.461C20.0058 12.1076 20.7794 10.2412 20.7529 8.29996C20.7796 6.3585 20.006 4.49162 18.614 3.13798C15.7632 0.287666 11.1417 0.287666 8.29095 3.13798C6.8988 4.49152 6.12518 6.35847 6.15192 8.29996C6.12518 10.2416 6.8988 12.1085 8.29095 13.462C9.64459 14.8533 11.511 15.6265 13.452 15.6V15.6ZM9.54694 4.39497C10.5826 3.35886 11.9875 2.77677 13.4525 2.77677C14.9174 2.77677 16.3223 3.35886 17.358 4.39497C18.4177 5.41441 19.0041 6.82975 18.976 8.29996C19.0045 9.77052 18.418 11.1863 17.358 12.206C16.3223 13.2421 14.9174 13.8242 13.4525 13.8242C11.9875 13.8242 10.5826 13.2421 9.54694 12.206C8.48645 11.1866 7.8996 9.77073 7.92792 8.29996C7.8996 6.82923 8.48645 5.4134 9.54694 4.39399V4.39497Z" fill="#707070"/>
<path d="M18.614 13.461L18.3699 13.2099L18.363 13.217L18.614 13.461ZM20.7529 8.29996L20.4028 8.29515L20.403 8.30474L20.7529 8.29996ZM18.614 3.13798L18.3665 3.38551L18.3699 3.3889L18.614 3.13798ZM8.29095 3.13798L8.53496 3.38894L8.53842 3.38548L8.29095 3.13798ZM6.15192 8.29996L6.50202 8.30478L6.50188 8.29515L6.15192 8.29996ZM8.29095 13.462L8.54191 13.2178L8.53494 13.2111L8.29095 13.462ZM9.54694 4.39497H9.19694V5.2402L9.79448 4.6424L9.54694 4.39497ZM17.358 4.39497L17.1104 4.64245L17.1153 4.6472L17.358 4.39497ZM18.976 8.29996L18.6258 8.29325L18.626 8.30675L18.976 8.29996ZM17.358 12.206L17.1153 11.9537L17.1104 11.9585L17.358 12.206ZM9.54694 12.206L9.79453 11.9585L9.78949 11.9536L9.54694 12.206ZM7.92792 8.29996L8.27811 8.30671L8.27785 8.29323L7.92792 8.29996ZM9.54694 4.39399H9.89694V3.57206L9.30438 4.14166L9.54694 4.39399ZM13.4471 15.95C15.4848 15.978 17.4442 15.1661 18.8649 13.705L18.363 13.217C17.0765 14.5402 15.3021 15.2754 13.4568 15.25L13.4471 15.95ZM18.8579 13.7119C20.3187 12.2915 21.1307 10.3326 21.1029 8.29519L20.403 8.30474C20.4281 10.1497 19.6929 11.9238 18.37 13.21L18.8579 13.7119ZM21.1029 8.30477C21.1309 6.26711 20.3189 4.30775 18.858 2.88705L18.3699 3.3889C19.693 4.67548 20.4283 6.44988 20.403 8.29516L21.1029 8.30477ZM18.8614 2.89047C15.874 -0.0964965 11.0309 -0.0965003 8.04348 2.89047L8.53842 3.38548C11.2525 0.671833 15.6524 0.671829 18.3665 3.38548L18.8614 2.89047ZM8.04697 2.88704C6.58584 4.30765 5.77389 6.26709 5.80195 8.30478L6.50188 8.29515C6.47647 6.44984 7.21176 4.6754 8.53494 3.38892L8.04697 2.88704ZM5.80195 8.29515C5.77389 10.3329 6.58584 12.2923 8.04697 13.713L8.53494 13.2111C7.21176 11.9246 6.47647 10.1502 6.50188 8.30478L5.80195 8.29515ZM8.04009 13.7061C9.46078 15.1663 11.4196 15.9778 13.4567 15.95L13.4472 15.25C11.6023 15.2752 9.8284 14.5403 8.54181 13.2179L8.04009 13.7061ZM9.79448 4.6424C10.7645 3.67197 12.0803 3.12677 13.4525 3.12677V2.42677C11.8946 2.42677 10.4007 3.04576 9.29939 4.14753L9.79448 4.6424ZM13.4525 3.12677C14.8245 3.12677 16.1404 3.67197 17.1104 4.64241L17.6055 4.14753C16.5042 3.04576 15.0102 2.42677 13.4525 2.42677V3.12677ZM17.1153 4.6472C18.1048 5.59904 18.6523 6.92053 18.626 8.29325L19.3259 8.30668C19.356 6.73897 18.7306 5.22977 17.6006 4.14273L17.1153 4.6472ZM18.626 8.30675C18.6526 9.67977 18.105 11.0017 17.1153 11.9537L17.6006 12.4582C18.7309 11.3709 19.3563 9.86126 19.3259 8.29318L18.626 8.30675ZM17.1104 11.9585C16.1404 12.929 14.8246 13.4742 13.4525 13.4742V14.1742C15.0103 14.1742 16.5042 13.5552 17.6055 12.4534L17.1104 11.9585ZM13.4525 13.4742C12.0803 13.4742 10.7645 12.929 9.79448 11.9585L9.29939 12.4534C10.4007 13.5552 11.8946 14.1742 13.4525 14.1742V13.4742ZM9.78949 11.9536C8.79934 11.0019 8.25141 9.67992 8.27785 8.3067L7.57798 8.29323C7.54778 9.86153 8.17356 11.3713 9.30438 12.4583L9.78949 11.9536ZM8.27785 8.29323C8.25141 6.92004 8.79934 5.59811 9.78949 4.64632L9.30438 4.14166C8.17356 5.22869 7.54778 6.73842 7.57798 8.3067L8.27785 8.29323ZM9.19694 4.39399V4.39497H9.89694V4.39399H9.19694Z" fill="#707070"/>
<path fill-rule="evenodd" clip-rule="evenodd" d="M26.226 24.307C26.1783 23.6648 26.0961 23.0255 25.9799 22.392C25.8654 21.7404 25.708 21.097 25.5089 20.466C25.3079 19.8403 25.0424 19.237 24.7169 18.666C24.3969 18.0922 23.995 17.568 23.524 17.11C23.0274 16.6434 22.445 16.2776 21.809 16.033C21.1111 15.7627 20.3683 15.6269 19.62 15.633C19.1836 15.6789 18.7706 15.8528 18.4329 16.133C18.077 16.365 17.661 16.633 17.197 16.933C16.6945 17.2315 16.1571 17.4666 15.597 17.633C14.327 18.0545 12.9549 18.0545 11.685 17.633C11.1247 17.4668 10.5872 17.2317 10.085 16.933C9.62497 16.639 9.20895 16.3711 8.84799 16.133C8.51071 15.8529 8.09799 15.6789 7.66196 15.633C6.91354 15.6267 6.17081 15.7625 5.47299 16.033C4.83694 16.2775 4.25448 16.6433 3.75796 17.11C3.28702 17.5678 2.8851 18.0916 2.56497 18.665C2.23959 19.2361 1.97421 19.8393 1.77298 20.465C1.57406 21.0957 1.41672 21.7387 1.30197 22.39C1.18558 23.0238 1.10342 23.6634 1.056 24.306C1.01596 24.885 0.994963 25.487 0.994963 26.096C0.931669 27.5197 1.47494 28.9036 2.48996 29.904C3.53897 30.8606 4.92355 31.3639 6.34195 31.304H20.9409C22.3594 31.3637 23.7439 30.8606 24.7929 29.904C25.81 28.9046 26.3552 27.5205 26.2929 26.096C26.2929 25.485 26.2719 24.883 26.232 24.306L26.226 24.307ZM23.568 28.618C22.8491 29.2608 21.9037 29.5905 20.9409 29.534H6.34695C5.38443 29.5907 4.43899 29.2614 3.71994 28.619C3.06021 27.9517 2.71707 27.0344 2.77695 26.098C2.77695 25.53 2.79599 24.969 2.83298 24.431C2.87594 23.8524 2.95004 23.2766 3.05496 22.706C3.15561 22.1309 3.29391 21.563 3.46896 21.006C3.6329 20.4985 3.84866 20.0092 4.11294 19.546C4.34823 19.1223 4.64364 18.735 4.98996 18.396C5.32083 18.088 5.70834 17.8473 6.13095 17.687C6.57822 17.5157 7.05209 17.4243 7.53097 17.417C7.59299 17.45 7.70395 17.517 7.88296 17.63C8.24795 17.868 8.66897 18.139 9.13394 18.437C9.76272 18.8198 10.437 19.1221 11.141 19.337C12.7647 19.8723 14.5173 19.8723 16.141 19.337C16.8456 19.1222 17.5205 18.8198 18.15 18.437C18.6259 18.137 19.0349 17.869 19.4 17.631C19.5789 17.514 19.69 17.451 19.752 17.418C20.2309 17.4254 20.7047 17.5167 21.1519 17.688C21.5745 17.8485 21.962 18.0892 22.2929 18.397C22.6394 18.7359 22.9348 19.1233 23.17 19.547C23.4344 20.0102 23.6502 20.4994 23.814 21.007C23.9891 21.564 24.1274 22.1319 24.228 22.707C24.3326 23.2776 24.4068 23.8535 24.45 24.432V24.432C24.4879 24.968 24.507 25.532 24.507 26.098C24.567 27.0344 24.2238 27.9519 23.5639 28.619L23.568 28.618Z" fill="#707070"/>
<path d="M26.226 24.307L25.8769 24.333L25.9054 24.7159L26.2841 24.6522L26.226 24.307ZM25.9799 22.392L25.6352 22.4526L25.6357 22.4551L25.9799 22.392ZM25.5089 20.466L25.8427 20.3607L25.8422 20.359L25.5089 20.466ZM24.7169 18.666L24.4113 18.8365L24.4129 18.8393L24.7169 18.666ZM23.524 17.11L23.768 16.859L23.7636 16.855L23.524 17.11ZM21.809 16.033L21.6825 16.3594L21.6834 16.3597L21.809 16.033ZM19.62 15.633L19.6171 15.283L19.6002 15.2832L19.5834 15.2849L19.62 15.633ZM18.4329 16.133L18.6241 16.4262L18.6409 16.4152L18.6565 16.4024L18.4329 16.133ZM17.197 16.933L17.3759 17.2342L17.387 17.2269L17.197 16.933ZM15.597 17.633L15.4972 17.2973L15.4867 17.3008L15.597 17.633ZM11.685 17.633L11.7953 17.3007L11.7845 17.2975L11.685 17.633ZM10.085 16.933L9.89641 17.2281L9.90611 17.2339L10.085 16.933ZM8.84799 16.133L8.62439 16.4023L8.63922 16.4146L8.65531 16.4252L8.84799 16.133ZM7.66196 15.633L7.69859 15.2849L7.68179 15.2832L7.66489 15.283L7.66196 15.633ZM5.47299 16.033L5.59856 16.3597L5.59952 16.3594L5.47299 16.033ZM3.75796 17.11L3.51822 16.8549L3.51401 16.859L3.75796 17.11ZM2.56497 18.665L2.86909 18.8383L2.87057 18.8356L2.56497 18.665ZM1.77298 20.465L1.43978 20.3578L1.43919 20.3597L1.77298 20.465ZM1.30197 22.39L1.64622 22.4533L1.64666 22.4508L1.30197 22.39ZM1.056 24.306L0.706944 24.2802L0.706832 24.2819L1.056 24.306ZM0.994963 26.096L1.34462 26.1116L1.34496 26.1038V26.096H0.994963ZM2.48996 29.904L2.24408 30.1535L2.25412 30.1626L2.48996 29.904ZM6.34195 31.304V30.954H6.33457L6.3272 30.9544L6.34195 31.304ZM20.9409 31.304L20.9557 30.9544L20.9483 30.954H20.9409V31.304ZM24.7929 29.904L25.0289 30.1628L25.0382 30.1537L24.7929 29.904ZM26.2929 26.096H25.9429V26.1037L25.9433 26.1113L26.2929 26.096ZM26.232 24.306L26.5811 24.2818L26.5544 23.8968L26.1739 23.9609L26.232 24.306ZM23.568 28.618L23.8013 28.8789L23.4855 28.2779L23.568 28.618ZM20.9409 29.534L20.9614 29.1846L20.9512 29.184H20.9409V29.534ZM6.34695 29.534V29.184H6.33665L6.32637 29.1846L6.34695 29.534ZM3.71994 28.619L3.47106 28.8651L3.47867 28.8728L3.48674 28.88L3.71994 28.619ZM2.77695 26.098L3.12623 26.1203L3.12695 26.1092V26.098H2.77695ZM2.83298 24.431L2.48393 24.4051L2.4838 24.407L2.83298 24.431ZM3.05496 22.706L3.3992 22.7693L3.39972 22.7664L3.05496 22.706ZM3.46896 21.006L3.1359 20.8984L3.13506 20.9011L3.46896 21.006ZM4.11294 19.546L4.41697 19.7194L4.41892 19.7159L4.11294 19.546ZM4.98996 18.396L4.75143 18.1397L4.74513 18.1459L4.98996 18.396ZM6.13095 17.687L6.25504 18.0143L6.25613 18.0139L6.13095 17.687ZM7.53097 17.417L7.69536 17.108L7.61577 17.0657L7.52564 17.0671L7.53097 17.417ZM7.88296 17.63L8.07416 17.3368L8.06979 17.334L7.88296 17.63ZM9.13394 18.437L8.94503 18.7318L8.95195 18.736L9.13394 18.437ZM11.141 19.337L11.2506 19.0045L11.2431 19.0022L11.141 19.337ZM16.141 19.337L16.0389 19.0021L16.0314 19.0046L16.141 19.337ZM18.15 18.437L18.3319 18.7361L18.3366 18.7331L18.15 18.437ZM19.4 17.631L19.5911 17.9242L19.5915 17.9239L19.4 17.631ZM19.752 17.418L19.7574 17.068L19.6671 17.0666L19.5875 17.1091L19.752 17.418ZM21.1519 17.688L21.0268 18.0149L21.0277 18.0152L21.1519 17.688ZM22.2929 18.397L22.5377 18.1467L22.5313 18.1407L22.2929 18.397ZM23.17 19.547L22.8639 19.7168L22.866 19.7206L23.17 19.547ZM23.814 21.007L24.1479 20.9021L24.1471 20.8996L23.814 21.007ZM24.228 22.707L23.8832 22.7673L23.8837 22.7701L24.228 22.707ZM24.507 26.098H24.157V26.1092L24.1577 26.1204L24.507 26.098ZM23.5639 28.619L23.3151 28.3728L22.4475 29.2499L23.6464 28.9591L23.5639 28.619ZM26.575 24.2811C26.5264 23.6263 26.4426 22.9746 26.3242 22.3289L25.6357 22.4551C25.7496 23.0763 25.8301 23.7032 25.8769 24.333L26.575 24.2811ZM26.3247 22.3314C26.2074 21.6646 26.0464 21.0063 25.8427 20.3607L25.1752 20.5713C25.3696 21.1877 25.5233 21.8161 25.6352 22.4526L26.3247 22.3314ZM25.8422 20.359C25.6337 19.7102 25.3585 19.0847 25.021 18.4927L24.4129 18.8393C24.7264 19.3893 24.9821 19.9704 25.1757 20.5731L25.8422 20.359ZM25.0226 18.4955C24.686 17.892 24.2634 17.3408 23.7679 16.8591L23.28 17.361C23.7267 17.7953 24.1078 18.2923 24.4113 18.8365L25.0226 18.4955ZM23.7636 16.855C23.2341 16.3573 22.6129 15.9672 21.9346 15.7064L21.6834 16.3597C22.277 16.588 22.8208 16.9295 23.2843 17.3651L23.7636 16.855ZM21.9354 15.7067C21.1963 15.4203 20.4097 15.2766 19.6171 15.283L19.6228 15.983C20.327 15.9773 21.0259 16.105 21.6825 16.3594L21.9354 15.7067ZM19.5834 15.2849C19.0783 15.338 18.6003 15.5394 18.2094 15.8637L18.6565 16.4024C18.9409 16.1663 19.2889 16.0197 19.6565 15.9811L19.5834 15.2849ZM18.2418 15.8398C17.8866 16.0713 17.4717 16.3386 17.0069 16.6391L17.387 17.2269C17.8503 16.9274 18.2674 16.6587 18.6241 16.4262L18.2418 15.8398ZM17.0183 16.6321C16.5406 16.9158 16.0298 17.1393 15.4973 17.2975L15.6966 17.9685C16.2845 17.7939 16.8485 17.5471 17.3757 17.234L17.0183 16.6321ZM15.4867 17.3008C14.2883 17.6986 12.9936 17.6986 11.7952 17.3008L11.5747 17.9652C12.9163 18.4104 14.3657 18.4104 15.7072 17.9652L15.4867 17.3008ZM11.7845 17.2975C11.252 17.1395 10.7412 16.916 10.2639 16.6322L9.90611 17.2339C10.4333 17.5473 10.9974 17.7941 11.5854 17.9686L11.7845 17.2975ZM10.2735 16.6381C9.81385 16.3444 9.39951 16.0775 9.04067 15.8408L8.65531 16.4252C9.01839 16.6646 9.43609 16.9337 9.89651 17.228L10.2735 16.6381ZM9.07159 15.8638C8.68115 15.5395 8.20338 15.3381 7.69859 15.2849L7.62532 15.9811C7.9926 16.0198 8.34027 16.1663 8.62439 16.4023L9.07159 15.8638ZM7.66489 15.283C6.87221 15.2764 6.08554 15.4201 5.34646 15.7067L5.59952 16.3594C6.25607 16.1048 6.95487 15.9771 7.65902 15.983L7.66489 15.283ZM5.34742 15.7063C4.66903 15.9671 4.04781 16.3572 3.51825 16.855L3.99768 17.365C4.46116 16.9294 5.00486 16.5879 5.59856 16.3597L5.34742 15.7063ZM3.51401 16.859C3.01875 17.3404 2.59606 17.8913 2.25937 18.4944L2.87057 18.8356C3.17414 18.2918 3.55529 17.7951 4.00191 17.361L3.51401 16.859ZM2.26086 18.4917C1.92353 19.0838 1.64841 19.7092 1.43979 20.3578L2.10617 20.5722C2.30002 19.9694 2.55565 19.3884 2.86908 18.8383L2.26086 18.4917ZM1.43919 20.3597C1.23567 21.005 1.07468 21.6629 0.957278 22.3293L1.64666 22.4508C1.75875 21.8145 1.91246 21.1864 2.10677 20.5703L1.43919 20.3597ZM0.957727 22.3268C0.839061 22.9729 0.755301 23.625 0.706947 24.2802L1.40505 24.3318C1.45154 23.7017 1.53209 23.0747 1.64621 22.4533L0.957727 22.3268ZM0.706832 24.2819C0.666229 24.869 0.644963 25.4791 0.644963 26.096H1.34496C1.34496 25.495 1.36569 24.901 1.40516 24.3301L0.706832 24.2819ZM0.645308 26.0805C0.577613 27.6032 1.15867 29.0833 2.24427 30.1533L2.73565 29.6547C1.79122 28.7239 1.28573 27.4363 1.34462 26.1116L0.645308 26.0805ZM2.25412 30.1626C3.37137 31.1815 4.84602 31.7174 6.35669 31.6537L6.3272 30.9544C5.00108 31.0103 3.70657 30.5398 2.72579 29.6454L2.25412 30.1626ZM6.34195 31.654H20.9409V30.954H6.34195V31.654ZM20.9262 31.6537C22.4369 31.7173 23.9115 31.1814 25.0288 30.1626L24.5571 29.6454C23.5763 30.5397 22.2819 31.0102 20.9557 30.9544L20.9262 31.6537ZM25.0382 30.1537C26.1261 29.0847 26.7092 27.6044 26.6426 26.0808L25.9433 26.1113C26.0012 27.4367 25.494 28.7245 24.5476 29.6544L25.0382 30.1537ZM26.6429 26.096C26.6429 25.4771 26.6217 24.867 26.5811 24.2818L25.8828 24.3302C25.9222 24.899 25.9429 25.4929 25.9429 26.096H26.6429ZM26.1739 23.9609L26.1679 23.9619L26.2841 24.6522L26.2901 24.6512L26.1739 23.9609ZM23.3347 28.3571C22.6852 28.9378 21.8311 29.2356 20.9614 29.1846L20.9205 29.8834C21.9762 29.9453 23.0129 29.5838 23.8013 28.8789L23.3347 28.3571ZM20.9409 29.184H6.34695V29.884H20.9409V29.184ZM6.32637 29.1846C5.45683 29.2359 4.60273 28.9384 3.95313 28.358L3.48674 28.88C4.27526 29.5845 5.31203 29.9456 6.36754 29.8834L6.32637 29.1846ZM3.96882 28.3729C3.37934 27.7767 3.07273 26.957 3.12623 26.1203L2.42766 26.0757C2.36141 27.1118 2.74108 28.1268 3.47106 28.8651L3.96882 28.3729ZM3.12695 26.098C3.12695 25.5377 3.14573 24.9847 3.18215 24.455L2.4838 24.407C2.44624 24.9533 2.42695 25.5223 2.42695 26.098H3.12695ZM3.18201 24.4569C3.22405 23.8909 3.29654 23.3276 3.39919 22.7693L2.71073 22.6427C2.60354 23.2257 2.52784 23.814 2.48394 24.4051L3.18201 24.4569ZM3.39972 22.7664C3.49773 22.2063 3.6324 21.6533 3.80286 21.1109L3.13506 20.9011C2.95542 21.4727 2.81349 22.0555 2.7102 22.6457L3.39972 22.7664ZM3.80202 21.1136C3.95857 20.629 4.1646 20.1618 4.41695 19.7194L3.80894 19.3726C3.53272 19.8567 3.30723 20.368 3.13591 20.8984L3.80202 21.1136ZM4.41892 19.7159C4.6378 19.3218 4.91262 18.9615 5.23479 18.6461L4.74513 18.1459C4.37467 18.5085 4.05866 18.9229 3.80697 19.376L4.41892 19.7159ZM5.22841 18.6522C5.52612 18.3751 5.8748 18.1585 6.25504 18.0143L6.00686 17.3597C5.54189 17.5361 5.11554 17.801 4.7515 18.1398L5.22841 18.6522ZM6.25613 18.0139C6.66512 17.8572 7.09843 17.7736 7.5363 17.767L7.52564 17.0671C7.00576 17.075 6.49131 17.1742 6.00577 17.3602L6.25613 18.0139ZM7.36659 17.726C7.41536 17.752 7.51566 17.812 7.69613 17.926L8.06979 17.334C7.89223 17.2219 7.77061 17.1481 7.69536 17.108L7.36659 17.726ZM7.69179 17.9232C8.05795 18.1619 8.4799 18.4335 8.94508 18.7317L9.3228 18.1423C8.85805 17.8445 8.43795 17.5741 8.07414 17.3368L7.69179 17.9232ZM8.95195 18.736C9.60573 19.1339 10.3068 19.4483 11.0388 19.6718L11.2431 19.0022C10.5672 18.7959 9.91972 18.5056 9.31593 18.138L8.95195 18.736ZM11.0314 19.6694C12.7263 20.2281 14.5557 20.2281 16.2505 19.6694L16.0314 19.0046C14.4789 19.5164 12.8031 19.5164 11.2505 19.0046L11.0314 19.6694ZM16.243 19.6718C16.9757 19.4484 17.6774 19.1341 18.3319 18.736L17.9681 18.138C17.3637 18.5056 16.7155 18.7959 16.0389 19.0022L16.243 19.6718ZM18.3366 18.7331C18.8153 18.4313 19.2268 18.1617 19.5911 17.9242L19.2088 17.3378C18.8431 17.5763 18.4366 17.8426 17.9634 18.1409L18.3366 18.7331ZM19.5915 17.9239C19.7631 17.8118 19.8651 17.7543 19.9165 17.7269L19.5875 17.1091C19.5149 17.1477 19.3948 17.2162 19.2085 17.3381L19.5915 17.9239ZM19.7466 17.768C20.1845 17.7747 20.6178 17.8583 21.0268 18.0149L21.2771 17.3612C20.7916 17.1752 20.2772 17.0761 19.7574 17.068L19.7466 17.768ZM21.0277 18.0152C21.408 18.1596 21.7568 18.3763 22.0546 18.6533L22.5313 18.1407C22.1672 17.8021 21.741 17.5373 21.2762 17.3608L21.0277 18.0152ZM22.0482 18.6472C22.3705 18.9624 22.6452 19.3227 22.8639 19.7168L23.476 19.3772C23.2245 18.9238 22.9084 18.5093 22.5377 18.1468L22.0482 18.6472ZM22.866 19.7206C23.1185 20.1627 23.3246 20.6299 23.4809 21.1145L24.1471 20.8996C23.9759 20.369 23.7503 19.8576 23.4739 19.3735L22.866 19.7206ZM23.4801 21.112C23.6506 21.6543 23.7853 22.2073 23.8832 22.7673L24.5728 22.6467C24.4695 22.0565 24.3276 21.4737 24.1479 20.9021L23.4801 21.112ZM23.8837 22.7701C23.9861 23.3285 24.0587 23.892 24.101 24.4581L24.799 24.406C24.7549 23.815 24.6791 23.2268 24.5723 22.6439L23.8837 22.7701ZM24.1009 24.4568C24.1382 24.984 24.157 25.5397 24.157 26.098H24.857C24.857 25.5244 24.8377 24.9521 24.7991 24.4073L24.1009 24.4568ZM24.1577 26.1204C24.2113 26.9571 23.9047 27.7768 23.3151 28.3728L23.8128 28.8651C24.543 28.1269 24.9227 27.1118 24.8563 26.0756L24.1577 26.1204ZM23.6464 28.9591L23.6505 28.9581L23.4855 28.2779L23.4814 28.2788L23.6464 28.9591Z" fill="#707070"/>
</g>
</svg>
